<svg width="1024" height="1024" viewBox="0 0 1024 1024" fill="none" xmlns="http://www.w3.org/2000/svg">
  <rect width="1024" height="1024" fill="#0f1419"/>
  <g transform="scale(32)">
    <rect x="2" y="2" width="28" height="28" rx="6" fill="#1a2235" stroke="#3d4a6b" stroke-width="0.2"/>
    <g stroke="#f1f5f9" stroke-width="1.5" stroke-linecap="round" stroke-linejoin="round" fill="none">
      <path d="M8 22V10c0-.5.5-1.5 2-2 1.5-.5 4-.5 6 1v14c-2-1.5-4.5-1.5-6-1-1.5.5-2 1-2 1z"/>
      <path d="M24 22V10c0-.5-.5-1.5-2-2-1.5-.5-4-.5-6 1v14c2-1.5 4.5-1.5 6-1 1.5.5 2 1 2 1z"/>
    </g>
  </g>
</svg>
